<svg width="113" height="119" viewBox="0 0 113 119" fill="none" xmlns="http://www.w3.org/2000/svg">
<path d="M78.5 42.7115L27 17.7885L40.5 10L91 37.5192V57.7692L78.5 64V42.7115Z" fill="#EA8B00"/>
<path d="M111.287 26.257L57.2563 0.173271C56.7773 -0.0577568 56.2195 -0.0577568 55.7407 0.173271L1.70985 26.257C1.10741 26.5478 0.724609 27.1579 0.724609 27.8268V91.1732C0.724609 91.8421 1.10741 92.4522 1.70985 92.743L55.7405 118.827C55.9799 118.942 56.2393 119 56.4984 119C56.7576 119 57.0167 118.942 57.2563 118.827L111.287 92.743C111.889 92.4522 112.272 91.8421 112.272 91.1732V27.8271C112.272 27.1577 111.889 26.548 111.287 26.257ZM56.4984 3.67889L106.52 27.8268L92.0194 34.8269C91.9276 34.757 91.8307 34.6923 91.7243 34.641L42.0429 10.6574L56.4984 3.67889ZM38.1062 12.6283L88.0545 36.7411L77.8245 41.6799L27.8968 17.5768L38.1062 12.6283ZM89.2232 40.048V58.3038L79.6676 62.9169V44.6611L89.2232 40.048ZM108.786 90.0794L58.2416 114.48V55.0046L70.298 49.1843C71.1649 48.7657 71.5284 47.7238 71.1098 46.8566C70.6912 45.9899 69.6493 45.6259 68.7821 46.0448L56.4984 51.975L51.665 49.6415C50.7978 49.2224 49.7558 49.5864 49.3373 50.4533C48.9187 51.3203 49.2822 52.3624 50.1491 52.781L54.7552 55.0046V114.48L4.21094 90.0789V30.604L42.7 49.185C42.9443 49.3031 43.2025 49.3589 43.4565 49.3589C44.1045 49.3589 44.7269 48.9958 45.0275 48.3732C45.4461 47.5062 45.0825 46.464 44.2156 46.0454L6.47728 27.8268L23.7939 19.4671L76.1571 44.746C76.1648 44.7567 76.1734 44.7662 76.1813 44.7767V65.6944C76.1813 66.2943 76.4897 66.8519 76.9978 67.171C77.2799 67.3481 77.6018 67.4376 77.9247 67.4376C78.1831 67.4376 78.4423 67.3801 78.6824 67.2642L91.7243 60.9681C92.3267 60.6773 92.7095 60.0675 92.7095 59.3983V38.3653L108.786 30.6043V90.0794Z" fill="#0C498C"/>
</svg>
