<svg width="120" height="119" viewBox="0 0 120 119" fill="none" xmlns="http://www.w3.org/2000/svg">
<path d="M86 92.5H70.5V103H86V92.5Z" fill="#EA8B00"/>
<path d="M42 50L23.5 63H42V50Z" fill="#EA8B00"/>
<path d="M65.5 51L47 64H65.5V51Z" fill="#EA8B00"/>
<path d="M110.679 115.303H102.524V64.4679C102.524 63.5436 101.825 62.6194 100.66 62.6194H97.3974L92.2712 30.9631C92.0382 30.0388 91.3392 29.5767 90.6401 29.5767H80.1547C79.2227 29.5767 78.5236 30.2699 78.5236 30.9631L73.3974 62.6194H66.8731V48.9864C66.8731 48.2932 66.4071 47.831 65.9411 47.3689C65.2421 47.1378 64.543 47.1378 64.077 47.6L43.8052 62.6194V48.9864C43.8052 48.2932 43.3392 47.831 42.8731 47.3689C42.1741 47.1378 41.4751 47.1378 41.0091 47.6L20.7372 62.6194H17.9411C17.0091 62.6194 16.077 63.3126 16.077 64.4679V115.303H9.08673C8.1547 115.303 7.22266 115.996 7.22266 117.151C7.22266 118.076 7.92169 119 9.08673 119H17.9411H29.5916H59.8829H100.893H110.912C111.844 119 112.776 118.307 112.776 117.151C112.543 116.227 111.611 115.303 110.679 115.303ZM81.5528 33.0427H89.0091L93.9023 62.6194H76.8926L81.5528 33.0427ZM63.378 52.4524V62.6194H49.6304L63.378 52.4524ZM40.31 52.4524V62.6194H26.5625L40.31 52.4524ZM42.8731 115.303H31.2227V93.1203H42.8731V115.303ZM58.0188 115.303H46.3683V93.1203H58.0188V115.303ZM98.7955 115.303H61.7469V91.5029C61.7469 90.5786 61.0479 89.6543 59.8829 89.6543H29.3586C28.4265 89.6543 27.4945 90.3475 27.4945 91.5029V115.534H19.3392V66.0854H20.9702H41.7081H44.0382H64.7761H74.5625H95.7663H98.7955V115.303Z" fill="#0C498C"/>
<path d="M92.2724 8.31845C92.2724 8.08738 92.2724 7.85631 92.2724 7.62524C92.2724 3.46602 88.7773 0 84.5831 0C80.3889 0 76.8938 3.46602 76.8938 7.62524C76.8938 7.85631 76.8938 8.08738 76.8938 8.31845C75.4957 9.70485 74.0977 11.7845 74.0977 13.8641C74.0977 16.1748 75.4957 18.0233 77.5928 19.4097C77.5928 21.2582 78.2918 22.8757 79.4569 24.2621C80.1559 24.9553 81.088 24.9553 82.02 24.4932C82.719 23.8 82.719 22.8757 82.253 21.9515C81.554 21.2583 81.321 20.334 81.321 19.1786C81.321 18.9476 81.321 18.9476 81.321 18.7165C81.321 18.0233 81.088 17.3301 80.3889 16.868C78.7579 15.9437 77.5928 14.7883 77.5928 13.8641C77.5928 12.7087 78.7579 11.5534 80.3889 10.6291C81.088 10.167 81.554 9.47379 81.321 8.54951C81.088 8.08738 81.0879 7.62524 81.0879 7.39417C81.0879 5.08349 82.952 3.23495 85.2821 3.23495C87.6122 3.23495 89.4763 5.08349 89.4763 7.39417C89.4763 7.62524 89.4763 8.08738 89.2433 8.54951C89.0103 9.47379 89.4763 10.167 90.1753 10.6291C92.0394 11.5534 92.9715 12.7087 92.9715 13.8641C92.9715 15.0194 92.0394 16.1748 90.1753 16.868C89.4763 17.099 89.0103 18.0233 89.2433 18.7165C89.2433 18.9476 89.2433 18.9476 89.2433 19.1786C89.2433 20.334 88.7773 21.4893 87.8452 22.1825C87.1462 22.8757 87.1462 24.0311 87.8452 24.7243C88.0782 25.1864 88.5443 25.1864 89.0103 25.1864C89.4763 25.1864 89.9423 24.9553 90.1753 24.7243C91.5734 23.3379 92.5054 21.4893 92.5054 19.4097C94.8355 18.0233 96.0006 15.9437 96.0006 13.8641C96.0006 11.5534 94.6025 9.70485 92.2724 8.31845Z" fill="#0C498C"/>
<path d="M43.3388 74.8661H31.6883C30.7563 74.8661 29.8242 75.5593 29.8242 76.7146C29.8242 77.6389 30.5232 78.5632 31.6883 78.5632H43.3388C44.2708 78.5632 45.2029 77.87 45.2029 76.7146C45.2029 75.7904 44.5038 74.8661 43.3388 74.8661Z" fill="#0C498C"/>
<path d="M62.913 74.8661H51.2625C50.3305 74.8661 49.3984 75.5593 49.3984 76.7146C49.3984 77.6389 50.0975 78.5632 51.2625 78.5632H62.913C63.845 78.5632 64.7771 77.87 64.7771 76.7146C64.5441 75.7904 63.845 74.8661 62.913 74.8661Z" fill="#0C498C"/>
<path d="M82.2528 74.6349H70.6024C69.6703 74.6349 68.7383 75.3281 68.7383 76.4834C68.9713 77.6388 69.6703 78.332 70.6024 78.332H82.2528C83.1849 78.332 84.1169 77.6388 84.1169 76.4834C84.1169 75.5592 83.4179 74.6349 82.2528 74.6349Z" fill="#0C498C"/>
<path d="M86.2138 89.6543H69.9031C68.9711 89.6543 68.0391 90.3475 68.0391 91.5028V103.518C68.0391 104.443 68.7381 105.367 69.9031 105.367H86.2138C87.1459 105.367 88.0779 104.674 88.0779 103.518V91.5028C87.8449 90.5786 87.1459 89.6543 86.2138 89.6543ZM84.3498 101.67H71.5342V93.1203H84.3498V101.67Z" fill="#0C498C"/>
</svg>
