<svg width="125" height="125" viewBox="0 0 125 125" fill="none" xmlns="http://www.w3.org/2000/svg">
<g clip-path="url(#clip0)">
<path d="M32 25H10.5V59.5H49.5L32 25Z" fill="#EA8B00"/>
<path d="M51.8855 59.5285L35.2189 24.1119C34.8751 23.3817 34.1408 22.9155 33.334 22.9155H10.4173C9.2668 22.9155 8.33398 23.8483 8.33398 24.9989V60.4155C8.33398 61.566 9.2668 62.4989 10.4173 62.4989H50.0006C51.1514 62.4986 52.084 61.5653 52.0837 60.4145C52.0837 60.1082 52.016 59.8056 51.8855 59.5285ZM12.5007 58.3322V27.0822H32.0116L46.7181 58.3322H12.5007Z" fill="#0C498C"/>
<path d="M122.917 108.332V77.0823C122.917 75.9318 121.984 74.9989 120.833 74.9989H114.583V43.7489C114.583 42.5984 113.651 41.6656 112.5 41.6656H106.25V10.4156C106.25 9.26509 105.317 8.33228 104.167 8.33228H72.9167V4.16561C72.9167 3.01502 71.9839 2.08228 70.8333 2.08228V2.08228C69.6827 2.08228 68.75 3.01502 68.75 4.16561V108.332H64.5833V66.6656C64.5833 66.3422 64.5081 66.0232 64.3635 65.7338L39.3635 15.7338C39.0107 15.0278 38.2891 14.5823 37.5 14.5823H2.08334C0.932814 14.5823 2.04605e-06 15.5151 2.04605e-06 16.6656V110.416C-0.0039042 117.315 5.58594 122.911 12.4857 122.916C18.5867 122.919 23.7979 118.515 24.812 112.499H39.7716C40.9135 119.299 47.3513 123.885 54.151 122.743C59.4005 121.862 63.5138 117.748 64.3953 112.499H122.917C124.067 112.499 125 111.566 125 110.416V110.416C125 109.265 124.067 108.332 122.917 108.332V108.332ZM12.5 118.749C7.89766 118.749 4.16667 115.018 4.16667 110.416C4.16667 105.813 7.89766 102.082 12.5 102.082C17.1023 102.082 20.8333 105.813 20.8333 110.416C20.8281 115.016 17.1003 118.744 12.5 118.749ZM52.0833 118.749C47.481 118.749 43.75 115.018 43.75 110.416C43.75 105.813 47.481 102.082 52.0833 102.082C56.6857 102.082 60.4167 105.813 60.4167 110.416C60.4115 115.016 56.6836 118.744 52.0833 118.749ZM60.4167 101.125C55.3047 96.5138 47.4227 96.9198 42.8115 102.032C41.2174 103.799 40.1628 105.985 39.7716 108.333H24.8117C23.6802 101.542 17.2581 96.9539 10.4672 98.0854C8.11979 98.4765 5.9336 99.5312 4.16641 101.125V18.7489H36.212L60.4167 67.157V101.125ZM72.9167 12.4989H85.4167V20.8323H89.5833V12.4989H102.083V41.6656H72.9167V12.4989ZM72.9167 45.8323H89.5833V54.1656H93.75V45.8323H110.417V74.9989H72.9167V45.8323ZM118.75 108.332H72.9167V79.1656H93.75V87.4989H97.9167V79.1656H118.75V108.332Z" fill="white"/>
<path d="M12.5 107.291C10.7742 107.291 9.375 108.69 9.375 110.416C9.375 112.141 10.7742 113.541 12.5 113.541C14.2258 113.541 15.625 112.141 15.625 110.416C15.6232 108.691 14.225 107.292 12.5 107.291Z" fill="white"/>
<path d="M52.084 107.291C50.3582 107.291 48.959 108.69 48.959 110.416C48.959 112.141 50.3582 113.541 52.084 113.541C53.8098 113.541 55.209 112.141 55.209 110.416C55.2072 108.691 53.809 107.292 52.084 107.291Z" fill="white"/>
</g>
<defs>
<clipPath id="clip0">
<rect width="125" height="125" fill="white"/>
</clipPath>
</defs>
</svg>
