<svg width="119" height="119" viewBox="0 0 119 119" fill="none" xmlns="http://www.w3.org/2000/svg">
<g clip-path="url(#clip0)">
<path d="M81.5 42.7115L30 17.7885L43.5 10L94 37.5192V57.7692L81.5 64V42.7115Z" fill="#EA8B00"/>
<path d="M114.287 26.257L60.2563 0.173271C59.7773 -0.0577568 59.2195 -0.0577568 58.7407 0.173271L4.70985 26.257C4.10741 26.5478 3.72461 27.1579 3.72461 27.8268V91.1732C3.72461 91.8421 4.10741 92.4522 4.70985 92.743L58.7405 118.827C58.9799 118.942 59.2393 119 59.4984 119C59.7576 119 60.0167 118.942 60.2563 118.827L114.287 92.743C114.889 92.4522 115.272 91.8421 115.272 91.1732V27.8271C115.272 27.1577 114.889 26.548 114.287 26.257ZM59.4984 3.67889L109.52 27.8268L95.0194 34.8269C94.9276 34.757 94.8307 34.6923 94.7243 34.641L45.0429 10.6574L59.4984 3.67889ZM41.1062 12.6283L91.0545 36.7411L80.8245 41.6799L30.8968 17.5768L41.1062 12.6283ZM92.2232 40.048V58.3038L82.6676 62.9169V44.6611L92.2232 40.048ZM111.786 90.0794L61.2416 114.48V55.0046L73.298 49.1843C74.1649 48.7657 74.5284 47.7238 74.1098 46.8566C73.6912 45.9899 72.6493 45.6259 71.7821 46.0448L59.4984 51.975L54.665 49.6415C53.7978 49.2224 52.7558 49.5864 52.3373 50.4533C51.9187 51.3203 52.2822 52.3624 53.1491 52.781L57.7552 55.0046V114.48L7.21094 90.0789V30.604L45.7 49.185C45.9443 49.3031 46.2025 49.3589 46.4565 49.3589C47.1045 49.3589 47.7269 48.9958 48.0275 48.3732C48.4461 47.5062 48.0825 46.464 47.2156 46.0454L9.47728 27.8268L26.7939 19.4671L79.1571 44.746C79.1648 44.7567 79.1734 44.7662 79.1813 44.7767V65.6944C79.1813 66.2943 79.4897 66.8519 79.9978 67.171C80.2799 67.3481 80.6018 67.4376 80.9247 67.4376C81.1831 67.4376 81.4423 67.3801 81.6824 67.2642L94.7243 60.9681C95.3267 60.6773 95.7095 60.0675 95.7095 59.3983V38.3653L111.786 30.6043V90.0794Z" fill="white"/>
<path d="M21.6005 83.3184L13.6714 79.4906C12.804 79.0716 11.7623 79.4356 11.3437 80.3025C10.9251 81.1694 11.2886 82.2116 12.1556 82.6302L20.0846 86.4579C20.3289 86.576 20.5871 86.6318 20.8412 86.6318C21.4892 86.6318 22.1116 86.2688 22.4121 85.6461C22.8309 84.7789 22.4674 83.7372 21.6005 83.3184Z" fill="white"/>
<path d="M28.8946 78.5682L13.6791 71.2227C12.8119 70.8041 11.77 71.1677 11.3514 72.0348C10.933 72.9018 11.2965 73.9439 12.1635 74.3625L27.379 81.708C27.6232 81.8258 27.8815 81.8818 28.1355 81.8818C28.7835 81.8818 29.4059 81.5188 29.7064 80.8961C30.125 80.0287 29.7615 78.9866 28.8946 78.5682Z" fill="white"/>
</g>
<defs>
<clipPath id="clip0">
<rect width="119" height="119" fill="white"/>
</clipPath>
</defs>
</svg>
