<svg width="119" height="119" viewBox="0 0 119 119" fill="none" xmlns="http://www.w3.org/2000/svg">
<g clip-path="url(#clip0)">
<path d="M66.5 51.5H53V58.5H66.5V51.5Z" fill="#EA8B00"/>
<circle cx="97" cy="91" r="10" fill="#EA8B00"/>
<path d="M49.3618 3.79787H70.1582C71.2069 3.79787 72.0571 2.94766 72.0571 1.89894C72.0571 0.850217 71.2069 0 70.1582 0H49.3618C48.3131 0 47.4629 0.850217 47.4629 1.89894C47.4629 2.94766 48.3131 3.79787 49.3618 3.79787Z" fill="#0C498C"/>
<path d="M104.917 115.202H99.0779V104.02C105.091 103.102 109.712 97.8957 109.712 91.6305C109.712 85.3652 105.091 80.1591 99.0779 79.2413V52.9005C99.0779 41.081 89.462 31.4651 77.6425 31.4651H72.0571V9.49464C72.0571 8.44592 71.2069 7.5957 70.1581 7.5957H49.3618C48.313 7.5957 47.4628 8.44592 47.4628 9.49464V49.0672H46.8298C45.7811 49.0672 44.9309 49.9174 44.9309 50.9661C44.9309 52.0149 45.7811 52.8651 46.8298 52.8651H50.2953V59.7772C50.2953 60.8259 51.1455 61.6761 52.1942 61.6761H67.326C68.3747 61.6761 69.2249 60.8259 69.2249 59.7772V52.8651H72.6903C73.739 52.8651 74.5892 52.0149 74.5892 50.9661C74.5892 49.9174 73.739 49.0672 72.6903 49.0672H72.0573V35.263H77.6427C87.3681 35.263 95.2803 43.1752 95.2803 52.9005V79.2413C89.2675 80.1591 84.6463 85.3652 84.6463 91.6305C84.6463 97.8957 89.2675 103.102 95.2803 104.02V115.202H13.4146C14.1952 113.031 16.2749 111.474 18.7114 111.474H89.5833C90.632 111.474 91.4822 110.624 91.4822 109.575C91.4822 108.527 90.632 107.676 89.5833 107.676H69.2246V74.336H84.963V74.9689C84.963 76.0177 85.8132 76.8679 86.862 76.8679C87.9107 76.8679 88.7609 76.0177 88.7609 74.9689V52.9005C88.7609 46.7697 83.773 41.7819 77.6422 41.7819C76.5935 41.7819 75.7433 42.6321 75.7433 43.6808C75.7433 44.7295 76.5935 45.5797 77.6422 45.5797C81.6789 45.5797 84.963 48.8639 84.963 52.9005V70.5381H38.987C37.9383 70.5381 37.088 71.3883 37.088 72.437C37.088 73.4858 37.9383 74.336 38.987 74.336H65.4268V99.8126H52.194C51.1452 99.8126 50.295 100.663 50.295 101.712C50.295 102.76 51.1452 103.61 52.194 103.61H65.4268V107.677H18.7114C13.5149 107.677 9.28711 111.905 9.28711 117.101C9.28711 118.15 10.1373 119 11.186 119H104.917C105.965 119 106.815 118.15 106.815 117.101C106.815 116.053 105.965 115.202 104.917 115.202ZM65.4268 57.8785H54.0929V52.8653H65.4268V57.8785ZM51.2607 49.0672V11.3936H68.2592V49.0672H51.2607ZM88.4439 91.6305C88.4439 86.8145 92.3615 82.8964 97.1775 82.8954C97.178 82.8954 97.1785 82.8954 97.179 82.8954C97.1795 82.8954 97.18 82.8954 97.1805 82.8954C101.996 82.8961 105.914 86.8145 105.914 91.6305C105.914 96.4469 101.995 100.366 97.179 100.366C92.3625 100.366 88.4439 96.4472 88.4439 91.6305Z" fill="#0C498C"/>
</g>
<defs>
<clipPath id="clip0">
<rect width="119" height="119" fill="white"/>
</clipPath>
</defs>
</svg>
