<svg width="135" height="135" viewBox="0 0 135 135" fill="none" xmlns="http://www.w3.org/2000/svg">
<circle cx="22" cy="116" r="8" fill="#EA8B00"/>
<circle cx="113" cy="116" r="8" fill="#EA8B00"/>
<path d="M104 42H40L38 58.5L104 59.5V42Z" fill="#EA8B00"/>
<path d="M126 48.5H121.5V13.25C121.5 11.5931 120.157 10.25 118.5 10.25H106.5C104.843 10.25 103.5 11.5931 103.5 13.25V33.5586L96.818 10.1757C96.45 8.88787 95.2729 8 93.9335 8H50.0665C48.7271 8 47.55 8.88787 47.182 10.1757L40.5 33.5586V17.75C40.5 16.0931 39.1569 14.75 37.5 14.75H3C1.34315 14.75 0 16.0931 0 17.75V74.75C0 76.4069 1.34315 77.75 3 77.75H13.5V109.319C12.0465 111.244 11.2577 113.589 11.25 116C11.25 122.213 16.2872 127.25 22.5 127.25C28.7128 127.25 33.75 122.213 33.75 116C33.7423 113.589 32.9535 111.244 31.5 109.319V77.75H37.5C39.1569 77.75 40.5 76.4069 40.5 74.75V67.9414L47.182 91.3243C47.55 92.6121 48.7271 93.5 50.0665 93.5H93.9335C95.2729 93.5 96.45 92.6121 96.818 91.3243L103.5 67.9414V109.18H103.615C102.092 111.128 101.26 113.527 101.25 116C101.25 122.213 106.287 127.25 112.5 127.25C118.713 127.25 123.75 122.213 123.75 116C123.742 113.589 122.953 111.244 121.5 109.319V53H127.5C129.157 53 130.5 51.6569 130.5 50V35H132.75C133.993 35 135 33.9926 135 32.75V32.75C135 31.5074 133.993 30.5 132.75 30.5H129C127.343 30.5 126 31.8431 126 33.5V48.5ZM108 14.75H117V105.704C114.135 104.433 110.865 104.433 108 105.704V14.75ZM40.5 44H103.5V57.5H40.5V44ZM51.1963 12.5H92.8037L100.516 39.5H43.4839L51.1963 12.5ZM22.5 122.75C18.7723 122.75 15.75 119.728 15.75 116C15.75 112.272 18.7723 109.25 22.5 109.25C26.2277 109.25 29.25 112.272 29.25 116C29.2456 119.727 26.2266 122.746 22.5 122.75ZM27 105.704C24.1348 104.433 20.8652 104.433 18 105.704V77.75H27V105.704ZM36 73.25H4.5V19.25H36V73.25ZM92.8037 89H51.1963L43.4839 62H100.516L92.8037 89ZM112.5 122.75C108.772 122.75 105.75 119.728 105.75 116C105.75 112.272 108.772 109.25 112.5 109.25C116.228 109.25 119.25 112.272 119.25 116C119.246 119.727 116.227 122.746 112.5 122.75Z" fill="white"/>
<path d="M13.5 28.25H27V32.75H13.5V28.25Z" fill="white"/>
<path d="M13.5 37.25H27V41.75H13.5V37.25Z" fill="white"/>
<path d="M13.5 46.25H27V50.75H13.5V46.25Z" fill="white"/>
<path d="M76.5 30.5H94.5V35H76.5V30.5Z" fill="white"/>
</svg>
