<svg width="135" height="135" viewBox="0 0 135 135" fill="none" xmlns="http://www.w3.org/2000/svg">
<circle cx="22" cy="116" r="8" fill="#EA8B00"/>
<circle cx="113" cy="116" r="8" fill="#EA8B00"/>
<path d="M104 42H40L38 58.5L104 59.5V42Z" fill="#EA8B00"/>
<path d="M126 48.375H121.5V13.125C121.5 11.4681 120.157 10.125 118.5 10.125H106.5C104.843 10.125 103.5 11.4681 103.5 13.125V33.4336L96.818 10.0507C96.45 8.76287 95.2729 7.875 93.9335 7.875H50.0665C48.7271 7.875 47.55 8.76287 47.182 10.0507L40.5 33.4336V17.625C40.5 15.9681 39.1569 14.625 37.5 14.625H3C1.34315 14.625 0 15.9681 0 17.625V74.625C0 76.2819 1.34315 77.625 3 77.625H13.5V109.194C12.0465 111.119 11.2577 113.464 11.25 115.875C11.25 122.088 16.2872 127.125 22.5 127.125C28.7128 127.125 33.75 122.088 33.75 115.875C33.7423 113.464 32.9535 111.119 31.5 109.194V77.625H37.5C39.1569 77.625 40.5 76.2819 40.5 74.625V67.8164L47.182 91.1993C47.55 92.4871 48.7271 93.375 50.0665 93.375H93.9335C95.2729 93.375 96.45 92.4871 96.818 91.1993L103.5 67.8164V109.055H103.615C102.092 111.003 101.26 113.402 101.25 115.875C101.25 122.088 106.287 127.125 112.5 127.125C118.713 127.125 123.75 122.088 123.75 115.875C123.742 113.464 122.953 111.119 121.5 109.194V52.875H127.5C129.157 52.875 130.5 51.5319 130.5 49.875V34.875H132.75C133.993 34.875 135 33.8676 135 32.625C135 31.3824 133.993 30.375 132.75 30.375H129C127.343 30.375 126 31.7181 126 33.375V48.375ZM108 14.625H117V105.579C114.135 104.308 110.865 104.308 108 105.579V14.625ZM40.5 43.875H103.5V57.375H40.5V43.875ZM51.1963 12.375H92.8037L100.516 39.375H43.4839L51.1963 12.375ZM22.5 122.625C18.7723 122.625 15.75 119.603 15.75 115.875C15.75 112.147 18.7723 109.125 22.5 109.125C26.2277 109.125 29.25 112.147 29.25 115.875C29.2456 119.602 26.2266 122.621 22.5 122.625ZM27 105.579C24.1348 104.308 20.8652 104.308 18 105.579V77.625H27V105.579ZM36 73.125H4.5V19.125H36V73.125ZM92.8037 88.875H51.1963L43.4839 61.875H100.516L92.8037 88.875ZM112.5 122.625C108.772 122.625 105.75 119.603 105.75 115.875C105.75 112.147 108.772 109.125 112.5 109.125C116.228 109.125 119.25 112.147 119.25 115.875C119.246 119.602 116.227 122.621 112.5 122.625Z" fill="#0C498C"/>
<path d="M13.5 28.125H27V32.625H13.5V28.125Z" fill="#0C498C"/>
<path d="M13.5 37.125H27V41.625H13.5V37.125Z" fill="#0C498C"/>
<path d="M13.5 46.125H27V50.625H13.5V46.125Z" fill="#0C498C"/>
<path d="M76.5 30.375H94.5V34.875H76.5V30.375Z" fill="#0C498C"/>
</svg>
