<svg width="103" height="89" viewBox="0 0 103 89" fill="none" xmlns="http://www.w3.org/2000/svg">
<path fill-rule="evenodd" clip-rule="evenodd" d="M82.3099 66.0947H98.1317V68.1672H82.3099V66.0947ZM56.481 66.0947H72.3028V68.1672H56.481V66.0947ZM30.607 66.0947H46.4289V68.1672H30.607V66.0947ZM4.82319 66.0947H20.6451V68.1672H4.82319V66.0947ZM0 64.9684H103V69.6991H0V64.9684Z" fill="#47B9D1"/>
<path fill-rule="evenodd" clip-rule="evenodd" d="M50.2604 33.6556V62.8959H65.4512V33.6556H50.2604ZM62.972 60.4179H57.8332V56.4982H62.972V60.4179ZM62.972 53.6147H57.8332V49.695H62.972V53.6147ZM62.972 46.8115H57.8332V42.8918H62.972V46.8115ZM62.972 40.0083H57.8332V36.0886H62.972V40.0083Z" fill="#00326A"/>
<path fill-rule="evenodd" clip-rule="evenodd" d="M0 33.6556V62.8959H16.7685V33.6556H0ZM2.7046 56.4982H8.38424V60.4179H2.7046V56.4982ZM2.7046 49.695H8.38424V53.6147H2.7046V49.695ZM2.7046 42.8918H8.38424V46.8115H2.7046V42.8918ZM2.7046 36.0886H8.38424V40.0083H2.7046V36.0886Z" fill="#00326A"/>
<path d="M99.3938 41.2247H89.6122V45.6851H99.3938V41.2247Z" fill="#00326A"/>
<path d="M98.5825 55.9125H88.8009V60.3729H98.5825V55.9125Z" fill="#00326A"/>
<path d="M83.6171 55.9125H73.8354V60.3729H83.6171V55.9125Z" fill="#00326A"/>
<path d="M98.5825 49.5148H88.8009V53.9752H98.5825V49.5148Z" fill="#00326A"/>
<path d="M83.6171 49.5148H73.8354V53.9752H83.6171V49.5148Z" fill="#00326A"/>
<path fill-rule="evenodd" clip-rule="evenodd" d="M32.2749 33.6556V36.1787H31.1479V40.0984H32.2749V42.9819H31.1479V46.8566H32.2749V49.7401H31.1479V53.6147H32.2749V56.4982H31.1479V60.3729H32.2749V62.8959H48.9983V33.6556H32.2749ZM47.4206 61.4992H33.8075V60.3729H46.3388V56.4982H33.8075V53.6147H46.3388V49.7401H33.8075V46.8566H46.3388V42.9819H33.8075V40.0984H46.3388V36.2237H33.8075V35.0974H47.4657V61.4992H47.4206Z" fill="#00326A"/>
<path fill-rule="evenodd" clip-rule="evenodd" d="M97.5458 38.6116V29.015H91.4153V38.6116H86.0062V46.9467H69.418V62.8959H102.955V47.4873V46.9016V38.6116H97.5458ZM92.993 30.4117H96.0582V38.6116H92.993V30.4117ZM101.467 61.4992H70.9956V48.2983H101.467V61.4992ZM101.467 46.9467H87.5838V40.0083H101.467V46.9467Z" fill="#00326A"/>
<path fill-rule="evenodd" clip-rule="evenodd" d="M101.197 15.9943L97.4106 13.6515L95.5624 12.4801L95.1567 12.2548L24.2062 0L0.270508 17.1207H2.47926H2.70464H18.4814V62.8959H20.0141V62.8509H27.6771L27.5869 62.8959H30.2915V17.1207H37.9545H38.9011H90.8745H92.1366H102.955L101.197 15.9943ZM24.3865 4.37027L28.6688 15.2734H20.1042L24.3865 4.37027ZM27.1812 17.1207L20.0591 23.5634V17.1207H27.1812ZM4.10202 15.724L6.58123 14.0119L9.06044 15.724H4.10202ZM7.88845 13.6515H12.8018L10.3677 15.3635L7.88845 13.6515ZM12.306 15.724L14.7852 14.0119L17.2644 15.724H12.306ZM18.6167 14.9581L14.695 12.2548H9.51121L23.6653 2.16261L18.6167 14.9581ZM27.6771 25.9063L20.0141 32.7996V25.9063H27.6771ZM27.6771 35.1424L20.0141 42.0357V35.1424H27.6771ZM27.6771 44.3786L20.0141 51.2719V44.3786H27.6771ZM20.0591 53.6147H27.7222L20.0591 60.508V53.6147ZM28.804 61.4542H21.141L28.804 54.5608V61.4542ZM28.804 52.218H21.141L28.804 45.3247V52.218ZM28.804 42.9819H21.141L28.804 36.0886V42.9819ZM28.804 33.7457H21.141L28.804 26.8524V33.7457ZM28.804 24.5096H21.141L28.804 17.6163V24.5096ZM37.9996 15.724H31.5987L34.6189 13.6515H37.9996V15.724ZM37.9996 12.2548H34.0779L30.1563 14.9581L24.9274 1.53185L86.9979 12.2548H40.6591H37.9996ZM39.5322 13.6515H40.9296H42.958L39.5322 14.9581V13.6515ZM45.5274 15.724H41.4705L45.5274 14.1921V15.724ZM47.06 13.6515H50.4858L47.06 14.9581V13.6515ZM53.0552 15.724H48.9983L53.0552 14.1921V15.724ZM54.5427 13.6515H57.9685L54.5427 14.9581V13.6515ZM60.5379 15.724H56.481L60.5379 14.1921V15.724ZM62.0705 13.6515H65.4963L62.0705 14.9581V13.6515ZM68.0657 15.724H64.0088L68.0657 14.1921V15.724ZM69.5983 13.6515H73.0241L69.5983 14.9581V13.6515ZM75.5935 15.724H71.5366L75.5935 14.1921V15.724ZM77.1261 13.6515H80.5519L77.1261 14.9581V13.6515ZM83.1213 15.724H79.0644L83.1213 14.1921V15.724ZM84.6088 13.6515H88.0346L84.6088 14.9581V13.6515ZM90.604 15.724H86.5471L90.604 14.1921V15.724ZM92.1366 15.724V13.6515H94.6609L98.0416 15.724H92.1366Z" fill="#00326A"/>
<path d="M3.592 87.099C2.818 87.099 2.266 86.898 1.936 86.496C1.606 86.088 1.441 85.491 1.441 84.705V81.987C1.441 81.201 1.606 80.61 1.936 80.214C2.266 79.818 2.818 79.62 3.592 79.62C4.36 79.62 4.909 79.821 5.239 80.223C5.575 80.619 5.743 81.207 5.743 81.987V84.714C5.743 85.494 5.575 86.088 5.239 86.496C4.909 86.898 4.36 87.099 3.592 87.099ZM3.592 86.037C3.844 86.037 4.012 85.953 4.096 85.785C4.186 85.611 4.231 85.374 4.231 85.074V81.627C4.231 81.327 4.186 81.096 4.096 80.934C4.012 80.766 3.844 80.682 3.592 80.682C3.34 80.682 3.169 80.766 3.079 80.934C2.995 81.096 2.953 81.327 2.953 81.627V85.074C2.953 85.38 2.995 85.617 3.079 85.785C3.163 85.953 3.334 86.037 3.592 86.037ZM7.36455 79.71H9.67755C10.9375 79.71 11.5675 80.409 11.5675 81.807C11.5675 82.545 11.3875 83.07 11.0275 83.382C10.6675 83.688 10.1665 83.841 9.52455 83.841H8.84055V87H7.36455V79.71ZM9.37155 82.797C9.68955 82.797 9.90255 82.722 10.0105 82.572C10.1185 82.422 10.1725 82.158 10.1725 81.78C10.1725 81.534 10.1545 81.342 10.1185 81.204C10.0825 81.06 10.0045 80.949 9.88455 80.871C9.77055 80.793 9.59655 80.754 9.36255 80.754H8.84055V82.797H9.37155ZM12.9516 79.71H16.1286V80.736H14.4276V82.671H15.7416V83.706H14.4276V85.992H16.1466V87H12.9516V79.71ZM17.0417 85.947C17.3777 85.953 17.6087 85.902 17.7347 85.794C17.8667 85.686 17.9597 85.455 18.0137 85.101C18.0737 84.747 18.1397 84.081 18.2117 83.103L18.4547 79.71H22.1717V87H20.6957V80.835H19.7777L19.6337 83.346C19.5617 84.39 19.4777 85.146 19.3817 85.614C19.2857 86.082 19.0937 86.433 18.8057 86.667C18.5237 86.895 18.0707 87.009 17.4467 87.009C17.2727 87.009 17.1377 87.006 17.0417 87V85.947ZM25.9485 87.099C25.1745 87.099 24.6255 86.892 24.3015 86.478C23.9775 86.058 23.8155 85.455 23.8155 84.669V82.059C23.8155 81.255 23.9745 80.649 24.2925 80.241C24.6165 79.827 25.1685 79.62 25.9485 79.62C26.6925 79.62 27.2175 79.803 27.5235 80.169C27.8355 80.529 27.9915 81.048 27.9915 81.726V82.338H26.5515V81.663C26.5515 81.447 26.5395 81.273 26.5155 81.141C26.4975 81.009 26.4435 80.901 26.3535 80.817C26.2695 80.727 26.1375 80.682 25.9575 80.682C25.6875 80.682 25.5135 80.769 25.4355 80.943C25.3575 81.117 25.3185 81.372 25.3185 81.708V85.02C25.3185 85.362 25.3635 85.617 25.4535 85.785C25.5435 85.953 25.7115 86.037 25.9575 86.037C26.2095 86.037 26.3715 85.953 26.4435 85.785C26.5155 85.611 26.5515 85.356 26.5515 85.02V84.309H27.9915V84.912C27.9915 85.608 27.8385 86.148 27.5325 86.532C27.2265 86.91 26.6985 87.099 25.9485 87.099ZM30.2121 80.808H29.0871V79.71H32.8131V80.808H31.7061V87H30.2121V80.808ZM34.1044 79.71H36.4174C37.6774 79.71 38.3074 80.409 38.3074 81.807C38.3074 82.545 38.1274 83.07 37.7674 83.382C37.4074 83.688 36.9064 83.841 36.2644 83.841H35.5804V87H34.1044V79.71ZM36.1114 82.797C36.4294 82.797 36.6424 82.722 36.7504 82.572C36.8584 82.422 36.9124 82.158 36.9124 81.78C36.9124 81.534 36.8944 81.342 36.8584 81.204C36.8224 81.06 36.7444 80.949 36.6244 80.871C36.5104 80.793 36.3364 80.754 36.1024 80.754H35.5804V82.797H36.1114ZM41.7344 87.099C40.9604 87.099 40.4084 86.898 40.0784 86.496C39.7484 86.088 39.5834 85.491 39.5834 84.705V81.987C39.5834 81.201 39.7484 80.61 40.0784 80.214C40.4084 79.818 40.9604 79.62 41.7344 79.62C42.5024 79.62 43.0514 79.821 43.3814 80.223C43.7174 80.619 43.8854 81.207 43.8854 81.987V84.714C43.8854 85.494 43.7174 86.088 43.3814 86.496C43.0514 86.898 42.5024 87.099 41.7344 87.099ZM41.7344 86.037C41.9864 86.037 42.1544 85.953 42.2384 85.785C42.3284 85.611 42.3734 85.374 42.3734 85.074V81.627C42.3734 81.327 42.3284 81.096 42.2384 80.934C42.1544 80.766 41.9864 80.682 41.7344 80.682C41.4824 80.682 41.3114 80.766 41.2214 80.934C41.1374 81.096 41.0954 81.327 41.0954 81.627V85.074C41.0954 85.38 41.1374 85.617 41.2214 85.785C41.3054 85.953 41.4764 86.037 41.7344 86.037ZM45.525 79.71H46.713V84.075L48.639 79.71H49.611V87H48.405V82.563L46.461 87H45.525V79.71ZM47.676 79.134C47.25 79.134 46.914 79.014 46.668 78.774C46.428 78.534 46.308 78.198 46.308 77.766H47.082C47.082 77.994 47.127 78.162 47.217 78.27C47.307 78.372 47.46 78.423 47.676 78.423C47.886 78.423 48.036 78.369 48.126 78.261C48.222 78.153 48.27 77.988 48.27 77.766H49.035C49.035 78.198 48.915 78.534 48.675 78.774C48.435 79.014 48.102 79.134 47.676 79.134ZM51.3757 79.71H52.5637V84.075L54.4897 79.71H55.4617V87H54.2557V82.563L52.3117 87H51.3757V79.71ZM57.2264 79.71H58.7114V82.698H59.9984V79.71H61.4834V87H59.9984V83.769H58.7114V87H57.2264V79.71ZM62.8211 85.938H63.0641C63.2921 85.848 63.4871 85.674 63.6491 85.416C63.8171 85.158 63.9581 84.768 64.0721 84.246C64.1861 83.724 64.2701 83.034 64.3241 82.176L64.5041 79.71H67.8251V85.938H68.6171V88.521H67.6181L67.5371 87H63.9551L63.8651 88.521H62.8211V85.938ZM66.4211 85.938V80.772H65.6471L65.5661 82.356C65.5181 83.202 65.4401 83.862 65.3321 84.336C65.2241 84.81 65.1041 85.149 64.9721 85.353C64.8401 85.551 64.6691 85.746 64.4591 85.938H66.4211ZM69.8925 87.36L70.1355 87.369C70.5135 87.369 70.7925 87.309 70.9725 87.189C71.1585 87.069 71.2515 86.874 71.2515 86.604C71.2515 86.514 71.2365 86.394 71.2065 86.244L69.6045 79.71H70.9905L71.6115 82.725L71.9265 84.759L72.1695 82.725L72.7005 79.71H74.1045L72.6285 86.442C72.5145 86.976 72.3765 87.375 72.2145 87.639C72.0585 87.903 71.8275 88.089 71.5215 88.197C71.2155 88.311 70.7715 88.368 70.1895 88.368H69.8925V87.36ZM77.4095 87.099C76.6355 87.099 76.0865 86.892 75.7625 86.478C75.4385 86.058 75.2765 85.455 75.2765 84.669V82.059C75.2765 81.255 75.4355 80.649 75.7535 80.241C76.0775 79.827 76.6295 79.62 77.4095 79.62C78.1535 79.62 78.6785 79.803 78.9845 80.169C79.2965 80.529 79.4525 81.048 79.4525 81.726V82.338H78.0125V81.663C78.0125 81.447 78.0005 81.273 77.9765 81.141C77.9585 81.009 77.9045 80.901 77.8145 80.817C77.7305 80.727 77.5985 80.682 77.4185 80.682C77.1485 80.682 76.9745 80.769 76.8965 80.943C76.8185 81.117 76.7795 81.372 76.7795 81.708V85.02C76.7795 85.362 76.8245 85.617 76.9145 85.785C77.0045 85.953 77.1725 86.037 77.4185 86.037C77.6705 86.037 77.8325 85.953 77.9045 85.785C77.9765 85.611 78.0125 85.356 78.0125 85.02V84.309H79.4525V84.912C79.4525 85.608 79.2995 86.148 78.9935 86.532C78.6875 86.91 78.1595 87.099 77.4095 87.099ZM81.6731 80.808H80.5481V79.71H84.2741V80.808H83.1671V87H81.6731V80.808ZM85.5654 79.71H87.8784C89.1384 79.71 89.7684 80.409 89.7684 81.807C89.7684 82.545 89.5884 83.07 89.2284 83.382C88.8684 83.688 88.3674 83.841 87.7254 83.841H87.0414V87H85.5654V79.71ZM87.5724 82.797C87.8904 82.797 88.1034 82.722 88.2114 82.572C88.3194 82.422 88.3734 82.158 88.3734 81.78C88.3734 81.534 88.3554 81.342 88.3194 81.204C88.2834 81.06 88.2054 80.949 88.0854 80.871C87.9714 80.793 87.7974 80.754 87.5634 80.754H87.0414V82.797H87.5724ZM91.1704 79.71H92.3584V84.075L94.2844 79.71H95.2564V87H94.0504V82.563L92.1064 87H91.1704V79.71ZM97.9661 83.751C97.6661 83.583 97.4291 83.337 97.2551 83.013C97.0811 82.683 96.9941 82.296 96.9941 81.852C96.9941 81.09 97.1951 80.544 97.5971 80.214C97.9991 79.878 98.6081 79.71 99.4241 79.71H101.224V87H99.7391V84.093H99.3881L99.2621 84.084L98.1641 87H96.5531L97.9661 83.751ZM99.7391 83.04V80.736H99.4511C98.7371 80.736 98.3801 81.111 98.3801 81.861C98.3801 82.239 98.4641 82.53 98.6321 82.734C98.8001 82.938 99.0821 83.04 99.4781 83.04H99.7391Z" fill="#00326A"/>
</svg>
