<svg width="18" height="18" viewBox="0 0 18 18" fill="none" xmlns="http://www.w3.org/2000/svg">
<g clip-path="url(#clip0)">
<path d="M17.5279 2.40066C17.2132 2.08589 16.8348 1.92859 16.3929 1.92859H1.60718C1.16523 1.92859 0.786808 2.08589 0.472071 2.40066C0.157298 2.71536 0 3.09374 0 3.53577V14.4644C0 14.9065 0.157298 15.2846 0.472071 15.5993C0.786773 15.9143 1.16519 16.0715 1.60718 16.0715H16.3929C16.8348 16.0715 17.2132 15.9143 17.5279 15.5993C17.8428 15.2846 18 14.9063 18 14.4644V3.53577C18 3.09374 17.8428 2.71536 17.5279 2.40066ZM16.7142 14.4642C16.7142 14.5512 16.6824 14.6266 16.6187 14.6902C16.555 14.7539 16.4797 14.7854 16.3928 14.7854H1.60707C1.52003 14.7854 1.44468 14.7539 1.3811 14.6902C1.31746 14.6266 1.28569 14.5512 1.28569 14.4642V6.74995C1.49995 6.99101 1.73099 7.21203 1.97877 7.41288C3.77347 8.79233 5.19978 9.92395 6.25784 10.8079C6.59935 11.0959 6.87729 11.3202 7.09155 11.481C7.30581 11.6418 7.59542 11.8041 7.96033 11.9681C8.32527 12.1323 8.66851 12.214 8.98993 12.214H9.00003H9.01002C9.33137 12.214 9.67475 12.1323 10.0395 11.9681C10.4046 11.8041 10.6944 11.6418 10.9086 11.481C11.1228 11.3202 11.4008 11.0959 11.7423 10.8079C12.8004 9.92395 14.2265 8.79233 16.0213 7.41288C16.2691 7.21206 16.5002 6.99101 16.7142 6.74995V14.4642ZM16.7142 3.79685V3.90732C16.7142 4.30238 16.5586 4.74272 16.2473 5.22816C15.9359 5.7136 15.5992 6.10039 15.2379 6.38824C13.9453 7.40627 12.6028 8.46753 11.2097 9.57242C11.1696 9.60587 11.0523 9.70459 10.858 9.86858C10.664 10.0328 10.5099 10.1585 10.396 10.2454C10.282 10.3326 10.1332 10.4381 9.94913 10.5618C9.76492 10.6856 9.59587 10.7779 9.44188 10.838C9.28788 10.8981 9.14389 10.9282 9.01002 10.9282H9.00003H8.98993C8.85603 10.9282 8.71217 10.8981 8.55807 10.838C8.40408 10.7779 8.23493 10.6856 8.05085 10.5618C7.86682 10.438 7.71779 10.3326 7.60394 10.2454C7.49016 10.1585 7.33606 10.0328 7.14193 9.86858C6.94772 9.70459 6.83043 9.60587 6.79029 9.57242C5.39747 8.46749 4.05489 7.40627 2.76241 6.38824C1.77799 5.61157 1.28586 4.6606 1.28586 3.53559C1.28586 3.44862 1.31763 3.37323 1.38128 3.30969C1.44492 3.24604 1.52021 3.21421 1.60725 3.21421H16.393C16.4465 3.24429 16.4934 3.25266 16.5336 3.23936C16.5738 3.22582 16.6039 3.25101 16.6239 3.31458C16.644 3.37822 16.6624 3.4083 16.6791 3.405C16.6959 3.40162 16.706 3.44345 16.7094 3.53063C16.7125 3.61764 16.7142 3.66144 16.7142 3.66144V3.79685H16.7142Z" fill="#EA8B00"/>
</g>
<defs>
<clipPath id="clip0">
<rect width="18" height="18" fill="white" transform="translate(18 18) rotate(-180)"/>
</clipPath>
</defs>
</svg>
