<svg width="18" height="16" viewBox="0 0 18 16" fill="none" xmlns="http://www.w3.org/2000/svg">
<path d="M17.5279 1.40066C17.2132 1.08589 16.8348 0.928589 16.3929 0.928589H1.60718C1.16523 0.928589 0.786808 1.08589 0.472071 1.40066C0.157298 1.71536 0 2.09374 0 2.53577V13.4644C0 13.9065 0.157298 14.2846 0.472071 14.5993C0.786773 14.9143 1.16519 15.0715 1.60718 15.0715H16.3929C16.8348 15.0715 17.2132 14.9143 17.5279 14.5993C17.8428 14.2846 18 13.9063 18 13.4644V2.53577C18 2.09374 17.8428 1.71536 17.5279 1.40066ZM16.7142 13.4642C16.7142 13.5512 16.6824 13.6266 16.6187 13.6902C16.555 13.7539 16.4797 13.7854 16.3928 13.7854H1.60707C1.52003 13.7854 1.44468 13.7539 1.3811 13.6902C1.31746 13.6266 1.28569 13.5512 1.28569 13.4642V5.74995C1.49995 5.99101 1.73099 6.21203 1.97877 6.41288C3.77347 7.79233 5.19978 8.92395 6.25784 9.80793C6.59935 10.0959 6.87729 10.3202 7.09155 10.481C7.30581 10.6418 7.59542 10.8041 7.96033 10.9681C8.32527 11.1323 8.66851 11.214 8.98993 11.214H9.00003H9.01002C9.33137 11.214 9.67475 11.1323 10.0395 10.9681C10.4046 10.8041 10.6944 10.6418 10.9086 10.481C11.1228 10.3202 11.4008 10.0959 11.7423 9.80793C12.8004 8.92395 14.2265 7.79233 16.0213 6.41288C16.2691 6.21206 16.5002 5.99101 16.7142 5.74995V13.4642ZM16.7142 2.79685V2.90732C16.7142 3.30238 16.5586 3.74272 16.2473 4.22816C15.9359 4.7136 15.5992 5.10039 15.2379 5.38824C13.9453 6.40627 12.6028 7.46753 11.2097 8.57242C11.1696 8.60587 11.0523 8.70459 10.858 8.86858C10.664 9.03281 10.5099 9.15851 10.396 9.24545C10.282 9.33263 10.1332 9.43807 9.94913 9.56184C9.76492 9.68561 9.59587 9.77785 9.44188 9.83805C9.28788 9.8981 9.14389 9.92818 9.01002 9.92818H9.00003H8.98993C8.85603 9.92818 8.71217 9.8981 8.55807 9.83805C8.40408 9.77785 8.23493 9.68561 8.05085 9.56184C7.86682 9.43803 7.71779 9.33259 7.60394 9.24545C7.49016 9.15851 7.33606 9.03281 7.14193 8.86858C6.94772 8.70459 6.83043 8.60587 6.79029 8.57242C5.39747 7.46749 4.05489 6.40627 2.76241 5.38824C1.77799 4.61157 1.28586 3.6606 1.28586 2.53559C1.28586 2.44862 1.31763 2.37323 1.38128 2.30969C1.44492 2.24604 1.52021 2.21421 1.60725 2.21421H16.393C16.4465 2.24429 16.4934 2.25266 16.5336 2.23936C16.5738 2.22582 16.6039 2.25101 16.6239 2.31458C16.644 2.37822 16.6624 2.4083 16.6791 2.405C16.6959 2.40162 16.706 2.44345 16.7094 2.53063C16.7125 2.61764 16.7142 2.66144 16.7142 2.66144V2.79685H16.7142Z" fill="black"/>
</svg>
