<svg width="17" height="17" viewBox="0 0 17 17" fill="none" xmlns="http://www.w3.org/2000/svg">
<path d="M12.2898 0H4.71073C4.0793 0 3.5625 0.516314 3.5625 1.14823V15.8513C3.5625 16.4832 4.0793 17 4.71073 17H12.2898C12.9212 17 13.438 16.4842 13.438 15.8518V1.14823C13.438 0.516314 12.9212 0 12.2898 0ZM7.28793 0.827657H9.71261C9.78936 0.827657 9.85153 0.889829 9.85153 0.967057C9.85153 1.0438 9.78936 1.10597 9.71261 1.10597H7.28793C7.21118 1.10597 7.14901 1.0438 7.14901 0.967057C7.14901 0.889829 7.21118 0.827657 7.28793 0.827657ZM8.50027 16.4259C8.1831 16.4259 7.92616 16.1689 7.92616 15.8513C7.92616 15.5336 8.1831 15.2772 8.50027 15.2772C8.81744 15.2772 9.07438 15.5336 9.07438 15.8513C9.07438 16.1689 8.81744 16.4259 8.50027 16.4259ZM12.639 14.875H4.3615V1.82094H12.639V14.875Z" fill="#EA8B00"/>
</svg>
