<svg width="11" height="17" viewBox="0 0 11 17" fill="none" xmlns="http://www.w3.org/2000/svg">
<path d="M9.28981 0H1.71073C1.0793 0 0.5625 0.516314 0.5625 1.14823V15.8513C0.5625 16.4832 1.0793 17 1.71073 17H9.28981C9.92124 17 10.438 16.4842 10.438 15.8518V1.14823C10.438 0.516314 9.92124 0 9.28981 0ZM4.28793 0.827657H6.71261C6.78936 0.827657 6.85153 0.889829 6.85153 0.967057C6.85153 1.0438 6.78936 1.10597 6.71261 1.10597H4.28793C4.21118 1.10597 4.14901 1.0438 4.14901 0.967057C4.14901 0.889829 4.21118 0.827657 4.28793 0.827657ZM5.50027 16.4259C5.1831 16.4259 4.92616 16.1689 4.92616 15.8513C4.92616 15.5336 5.1831 15.2772 5.50027 15.2772C5.81744 15.2772 6.07438 15.5336 6.07438 15.8513C6.07438 16.1689 5.81744 16.4259 5.50027 16.4259ZM9.63904 14.875H1.3615V1.82094H9.63904V14.875Z" fill="black"/>
</svg>
