<?xml version="1.0" encoding="utf-8"?><svg xmlns="http://www.w3.org/2000/svg" xmlns:xlink="http://www.w3.org/1999/xlink"><symbol viewBox="0 0 103 89" id="logo" xmlns="http://www.w3.org/2000/svg"><path fill-rule="evenodd" clip-rule="evenodd" d="M82.31 66.095h15.822v2.072H82.31v-2.072zm-25.829 0h15.822v2.072H56.48v-2.072zm-25.874 0h15.822v2.072H30.607v-2.072zm-25.784 0h15.822v2.072H4.823v-2.072zM0 64.968h103V69.7H0v-4.73zm50.26-31.312v29.24h15.191v-29.24h-15.19zm12.712 26.762h-5.139v-3.92h5.139v3.92zm0-6.803h-5.139v-3.92h5.139v3.92zm0-6.803h-5.139v-3.92h5.139v3.92zm0-6.804h-5.139v-3.92h5.139v3.92zM0 33.656v29.24h16.768v-29.24H0zm2.705 22.842h5.68v3.92h-5.68v-3.92zm0-6.803h5.68v3.92h-5.68v-3.92zm0-6.803h5.68v3.92h-5.68v-3.92zm0-6.803h5.68v3.92h-5.68v-3.92z"/><path d="M99.394 41.225h-9.782v4.46h9.782v-4.46zm-.812 14.688h-9.781v4.46h9.781v-4.46zm-14.965 0h-9.782v4.46h9.782v-4.46zm14.965-6.398h-9.781v4.46h9.781v-4.46zm-14.965 0h-9.782v4.46h9.782v-4.46z"/><path fill-rule="evenodd" clip-rule="evenodd" d="M32.275 33.656v2.523h-1.127v3.92h1.127v2.883h-1.127v3.875h1.127v2.883h-1.127v3.875h1.127v2.883h-1.127v3.875h1.127v2.523h16.723v-29.24H32.275zM47.42 61.499H33.807v-1.126H46.34v-3.875H33.807v-2.883H46.34V49.74H33.807v-2.883H46.34v-3.875H33.807v-2.884H46.34v-3.874H33.807v-1.127h13.659V61.5h-.045zm50.126-22.887v-9.597h-6.13v9.597h-5.41v8.335H69.418v15.949h33.537V38.612h-5.41zm-4.553-8.2h3.065v8.2h-3.065v-8.2zm8.474 31.087H70.996V48.3h30.471v13.2zm0-14.552H87.584v-6.939h13.883v6.939z"/><path fill-rule="evenodd" clip-rule="evenodd" d="M101.197 15.994l-3.786-2.342-1.849-1.172-.405-.225L24.207 0 .27 17.12h18.21v45.776h1.533v-.045h7.663l-.09.045h2.704V17.12h72.664l-1.758-1.127zM24.387 4.37l4.282 10.903h-8.565L24.387 4.37zm2.794 12.75l-7.122 6.443v-6.442h7.122zM4.102 15.725l2.48-1.712 2.478 1.712H4.102zm3.786-2.072h4.914l-2.434 1.712-2.48-1.713zm4.418 2.072l2.48-1.712 2.478 1.712h-4.958zm6.31-.766l-3.921-2.703H9.511L23.665 2.163l-5.048 12.795zm9.061 10.948L20.014 32.8v-6.894h7.663zm0 9.236l-7.663 6.894v-6.894h7.663zm0 9.237l-7.663 6.893V44.38h7.663zm-7.618 9.236h7.663l-7.663 6.893v-6.893zm8.745 7.84h-7.663l7.663-6.894v6.893zm0-9.237h-7.663l7.663-6.893v6.893zm0-9.236h-7.663l7.663-6.893v6.893zm0-9.236h-7.663l7.663-6.894v6.894zm0-9.236h-7.663l7.663-6.894v6.894zM38 15.724h-6.401l3.02-2.072h3.38v2.072zm0-3.47h-3.922l-3.922 2.704-5.229-13.426 62.07 10.723H38zm1.532 1.398h3.426l-3.426 1.306v-1.306zm5.995 2.072h-4.056l4.056-1.532v1.532zm1.533-2.072h3.426l-3.426 1.306v-1.306zm5.995 2.072h-4.057l4.057-1.532v1.532zm1.488-2.072h3.425l-3.425 1.306v-1.306zm5.995 2.072H56.48l4.057-1.532v1.532zm1.533-2.072h3.425l-3.425 1.306v-1.306zm5.995 2.072h-4.057l4.057-1.532v1.532zm1.532-2.072h3.426l-3.426 1.306v-1.306zm5.996 2.072h-4.057l4.056-1.532v1.532zm1.532-2.072h3.426l-3.426 1.306v-1.306zm5.995 2.072h-4.057l4.057-1.532v1.532zm1.488-2.072h3.426l-3.426 1.306v-1.306zm5.995 2.072h-4.057l4.057-1.532v1.532zm1.533 0v-2.072h2.524l3.38 2.072h-5.904z"/><path d="M3.592 87.099c-.774 0-1.326-.201-1.656-.603-.33-.408-.495-1.005-.495-1.791v-2.718c0-.786.165-1.377.495-1.773.33-.396.882-.594 1.656-.594.768 0 1.317.201 1.647.603.336.396.504.984.504 1.764v2.727c0 .78-.168 1.374-.504 1.782-.33.402-.879.603-1.647.603zm0-1.062c.252 0 .42-.084.504-.252.09-.174.135-.411.135-.711v-3.447c0-.3-.045-.531-.135-.693-.084-.168-.252-.252-.504-.252s-.423.084-.513.252c-.084.162-.126.393-.126.693v3.447c0 .306.042.543.126.711.084.168.255.252.513.252zm3.773-6.327h2.313c1.26 0 1.89.699 1.89 2.097 0 .738-.18 1.263-.54 1.575-.36.306-.862.459-1.503.459H8.84V87H7.365v-7.29zm2.007 3.087c.318 0 .53-.075.639-.225.107-.15.162-.414.162-.792 0-.246-.018-.438-.055-.576a.538.538 0 0 0-.233-.333c-.114-.078-.288-.117-.522-.117H8.84v2.043h.53zm3.58-3.087h3.177v1.026h-1.701v1.935h1.314v1.035h-1.314v2.286h1.719V87h-3.195v-7.29zm4.09 6.237c.336.006.567-.045.693-.153.132-.108.225-.339.279-.693.06-.354.126-1.02.198-1.998l.243-3.393h3.717V87h-1.476v-6.165h-.918l-.144 2.511c-.072 1.044-.156 1.8-.252 2.268-.096.468-.288.819-.576 1.053-.282.228-.735.342-1.36.342a6.93 6.93 0 0 1-.404-.009v-1.053zm8.906 1.152c-.774 0-1.323-.207-1.646-.621-.325-.42-.486-1.023-.486-1.809v-2.61c0-.804.159-1.41.477-1.818.323-.414.876-.621 1.655-.621.744 0 1.27.183 1.575.549.313.36.468.879.468 1.557v.612h-1.44v-.675c0-.216-.011-.39-.035-.522a.525.525 0 0 0-.162-.324c-.084-.09-.216-.135-.396-.135-.27 0-.444.087-.522.261-.078.174-.117.429-.117.765v3.312c0 .342.044.597.134.765.09.168.259.252.505.252.252 0 .414-.084.486-.252.072-.174.108-.429.108-.765v-.711h1.44v.603c0 .696-.154 1.236-.46 1.62-.305.378-.834.567-1.584.567zm4.264-6.291h-1.125V79.71h3.726v1.098h-1.107V87h-1.494v-6.192zm3.892-1.098h2.313c1.26 0 1.89.699 1.89 2.097 0 .738-.18 1.263-.54 1.575-.36.306-.86.459-1.503.459h-.684V87h-1.476v-7.29zm2.007 3.087c.318 0 .531-.075.64-.225.107-.15.161-.414.161-.792 0-.246-.018-.438-.054-.576a.538.538 0 0 0-.234-.333c-.114-.078-.288-.117-.522-.117h-.522v2.043h.531zm5.623 4.302c-.774 0-1.326-.201-1.656-.603-.33-.408-.495-1.005-.495-1.791v-2.718c0-.786.165-1.377.495-1.773.33-.396.882-.594 1.656-.594.768 0 1.317.201 1.647.603.336.396.504.984.504 1.764v2.727c0 .78-.168 1.374-.504 1.782-.33.402-.879.603-1.647.603zm0-1.062c.252 0 .42-.084.504-.252.09-.174.135-.411.135-.711v-3.447c0-.3-.045-.531-.135-.693-.084-.168-.252-.252-.504-.252s-.423.084-.513.252c-.084.162-.126.393-.126.693v3.447c0 .306.042.543.126.711.084.168.255.252.513.252zm3.791-6.327h1.188v4.365l1.926-4.365h.972V87h-1.206v-4.437L46.461 87h-.936v-7.29zm2.151-.576c-.426 0-.762-.12-1.008-.36-.24-.24-.36-.576-.36-1.008h.774c0 .228.045.396.135.504.09.102.243.153.459.153.21 0 .36-.054.45-.162.096-.108.144-.273.144-.495h.765c0 .432-.12.768-.36 1.008s-.573.36-.999.36zm3.7.576h1.188v4.365l1.926-4.365h.972V87h-1.206v-4.437L52.312 87h-.936v-7.29zm5.85 0h1.485v2.988h1.287V79.71h1.485V87h-1.485v-3.231h-1.287V87h-1.485v-7.29zm5.595 6.228h.243c.228-.09.423-.264.585-.522.168-.258.31-.648.423-1.17.114-.522.198-1.212.252-2.07l.18-2.466h3.321v6.228h.792v2.583h-.999L67.538 87h-3.583l-.09 1.521h-1.044v-2.583zm3.6 0v-5.166h-.774l-.08 1.584c-.049.846-.127 1.506-.235 1.98-.108.474-.228.813-.36 1.017a3.229 3.229 0 0 1-.513.585h1.962zm3.471 1.422l.243.009c.378 0 .657-.06.837-.18.187-.12.28-.315.28-.585 0-.09-.015-.21-.045-.36l-1.602-6.534h1.385l.622 3.015.315 2.034.242-2.034.532-3.015h1.404l-1.477 6.732c-.114.534-.252.933-.413 1.197a1.27 1.27 0 0 1-.694.558c-.305.114-.75.171-1.332.171h-.296V87.36zm7.517-.261c-.774 0-1.323-.207-1.647-.621-.323-.42-.486-1.023-.486-1.809v-2.61c0-.804.16-1.41.478-1.818.323-.414.875-.621 1.655-.621.744 0 1.27.183 1.575.549.313.36.469.879.469 1.557v.612h-1.44v-.675c0-.216-.013-.39-.037-.522a.525.525 0 0 0-.162-.324c-.083-.09-.215-.135-.395-.135-.27 0-.444.087-.522.261-.079.174-.118.429-.118.765v3.312c0 .342.046.597.136.765.09.168.257.252.503.252.252 0 .414-.084.486-.252.073-.174.109-.429.109-.765v-.711h1.44v.603c0 .696-.154 1.236-.46 1.62-.305.378-.834.567-1.584.567zm4.264-6.291h-1.125V79.71h3.726v1.098h-1.107V87h-1.494v-6.192zm3.892-1.098h2.313c1.26 0 1.89.699 1.89 2.097 0 .738-.18 1.263-.54 1.575-.36.306-.86.459-1.503.459h-.684V87h-1.476v-7.29zm2.007 3.087c.318 0 .531-.075.64-.225.107-.15.161-.414.161-.792 0-.246-.018-.438-.054-.576a.538.538 0 0 0-.234-.333c-.114-.078-.288-.117-.522-.117h-.522v2.043h.531zm3.598-3.087h1.188v4.365l1.926-4.365h.972V87H94.05v-4.437L92.106 87h-.936v-7.29zm6.796 4.041a1.796 1.796 0 0 1-.71-.738c-.175-.33-.262-.717-.262-1.161 0-.762.201-1.308.603-1.638.402-.336 1.011-.504 1.827-.504h1.8V87h-1.485v-2.907h-.35l-.127-.009L98.164 87h-1.61l1.412-3.249zm1.773-.711v-2.304h-.288c-.714 0-1.07.375-1.07 1.125 0 .378.083.669.251.873.168.204.45.306.846.306h.261z"/></symbol></svg>