<?xml version="1.0" standalone="no"?>
<!DOCTYPE svg PUBLIC "-//W3C//DTD SVG 20010904//EN"
 "http://www.w3.org/TR/2001/REC-SVG-20010904/DTD/svg10.dtd">
<svg version="1.0" xmlns="http://www.w3.org/2000/svg"
 width="700.000000pt" height="700.000000pt" viewBox="0 0 700.000000 700.000000"
 preserveAspectRatio="xMidYMid meet">
<metadata>
Created by potrace 1.11, written by Peter Selinger 2001-2013
</metadata>
<g transform="translate(0.000000,700.000000) scale(0.100000,-0.100000)"
fill="#000000" stroke="none">
<path d="M972 5776 c-414 -299 -759 -549 -765 -555 -8 -8 140 -11 576 -11
l587 0 0 -1485 0 -1485 380 0 380 0 0 1485 0 1485 2343 0 c2326 1 2342 1 2319
20 -13 11 -125 83 -247 160 l-224 139 -2274 396 c-1250 217 -2284 395 -2298
394 -15 0 -294 -195 -777 -543z m3093 -246 l-1700 -5 -118 -84 c-65 -46 -122
-80 -126 -75 -8 9 -319 809 -328 843 -4 15 283 -33 1983 -328 l1988 -346
-1699 -5z m-2383 603 c-84 -222 -297 -760 -303 -767 -4 -5 -61 29 -126 75
l-118 84 -170 5 -169 5 449 323 c247 177 451 322 452 322 2 0 -5 -21 -15 -47z
m206 -446 c73 -188 132 -345 132 -349 0 -13 -540 -10 -540 3 0 16 263 689 270
689 3 0 65 -154 138 -343z m-902 -255 c-2 -4 -36 -29 -74 -56 l-69 -47 -69 47
c-38 26 -73 51 -78 56 -6 4 59 8 143 8 84 0 150 -4 147 -8z m1644 -57 c0 -44
-4 -67 -13 -71 -7 -2 -100 -3 -207 -2 l-195 3 95 67 95 67 113 0 112 1 0 -65z
m215 25 c-55 -22 -103 -40 -107 -40 -5 0 -8 18 -8 40 l0 40 108 -1 107 0 -100
-39z m574 35 c-7 -6 -189 -75 -200 -75 -5 0 -9 18 -9 40 l0 40 107 0 c58 0
104 -2 102 -5z m480 0 c-5 -5 -185 -75 -194 -75 -3 0 -5 18 -5 40 l0 40 102 0
c56 0 99 -2 97 -5z m490 1 c-6 -6 -190 -76 -200 -76 -5 0 -9 18 -9 40 l0 40
107 0 c58 0 104 -2 102 -4z m396 -36 c-55 -22 -103 -40 -107 -40 -5 0 -8 18
-8 40 l0 40 108 -1 107 0 -100 -39z m574 35 c-7 -6 -189 -75 -200 -75 -5 0 -9
18 -9 40 l0 40 107 0 c58 0 104 -2 102 -5z m396 -35 c-55 -22 -103 -40 -107
-40 -5 0 -8 18 -8 40 l0 40 108 -1 107 0 -100 -39z m632 -22 c57 -35 103 -66
103 -71 0 -4 -82 -6 -182 -5 l-183 3 -3 68 -3 67 82 0 83 0 103 -62z m-5708
-15 c38 -27 70 -51 71 -55 0 -5 -67 -8 -150 -8 -82 0 -150 3 -150 8 1 9 131
100 147 101 6 1 43 -20 82 -46z m525 1 c36 -25 68 -49 71 -55 4 -5 -53 -9
-144 -9 -83 0 -151 3 -151 8 1 10 132 101 147 101 7 1 41 -20 77 -45z m1906
-14 l0 -50 -122 0 c-67 0 -118 3 -114 8 8 7 215 90 229 91 4 1 7 -21 7 -49z
m490 0 l0 -50 -127 0 c-69 0 -124 3 -120 6 6 7 228 93 240 94 4 0 7 -22 7 -50z
m480 0 l0 -50 -122 0 c-75 0 -118 4 -113 9 9 9 211 89 228 90 4 1 7 -21 7 -49z
m490 0 l0 -50 -127 0 c-69 0 -123 3 -119 7 7 8 224 91 239 92 4 1 7 -21 7 -49z
m488 3 l-3 -48 -124 -3 c-69 -1 -122 1 -117 5 9 10 216 91 234 92 9 1 12 -12
10 -46z m482 -3 l0 -50 -127 0 c-69 0 -124 2 -121 5 6 7 229 94 241 95 4 0 7
-22 7 -50z m480 0 l0 -50 -122 0 c-67 0 -118 3 -114 7 8 8 214 91 229 92 4 1
7 -21 7 -49z m-4120 -164 c-14 -13 -104 -94 -200 -181 -96 -87 -187 -170 -202
-184 l-28 -25 0 207 0 207 227 0 228 0 -25 -24z m130 -236 l0 -220 -241 0
c-138 0 -239 4 -237 9 3 9 467 431 474 431 2 0 4 -99 4 -220z m-80 -314 c0 -2
-89 -84 -197 -182 -109 -99 -217 -196 -240 -218 l-43 -39 0 222 0 221 240 0
c132 0 240 -2 240 -4z m80 -286 l0 -220 -241 0 c-138 0 -239 4 -237 9 3 9 467
431 474 431 2 0 4 -99 4 -220z m-80 -314 c0 -2 -89 -84 -197 -182 -109 -99
-217 -196 -240 -218 l-43 -39 0 222 0 221 240 0 c132 0 240 -2 240 -4z m80
-286 l0 -220 -241 0 c-138 0 -239 4 -237 9 3 9 467 431 474 431 2 0 4 -99 4
-220z m-80 -314 c0 -2 -91 -86 -202 -186 -112 -101 -220 -199 -240 -219 l-38
-35 0 222 0 222 240 0 c132 0 240 -2 240 -4z m80 -286 l0 -220 -241 0 c-133 0
-239 4 -237 9 3 9 467 431 474 431 2 0 4 -99 4 -220z m-71 -313 c-2 -2 -103
-93 -224 -202 -121 -109 -230 -207 -242 -218 l-23 -20 0 221 0 222 247 0 c135
0 244 -2 242 -3z m71 -287 l0 -220 -241 0 c-134 0 -239 4 -237 9 3 9 467 431
474 431 2 0 4 -99 4 -220z"/>
<path d="M6080 4130 l0 -310 -175 0 -175 0 0 -270 0 -270 -535 0 -535 0 0
-520 0 -520 1080 0 1080 0 0 790 0 790 -175 0 -175 0 0 310 0 310 -195 0 -195
0 0 -310z m300 -45 l0 -265 -100 0 -100 0 0 265 0 265 100 0 100 0 0 -265z
m348 -582 l2 -223 -450 0 -450 0 0 225 0 225 448 -2 447 -3 3 -222z m0 -745
l2 -428 -985 0 -985 0 0 430 0 430 983 -2 982 -3 3 -427z"/>
<path d="M5960 3505 l0 -145 315 0 315 0 0 145 0 145 -315 0 -315 0 0 -145z"/>
<path d="M4940 2965 l0 -145 315 0 315 0 0 145 0 145 -315 0 -315 0 0 -145z"/>
<path d="M5910 2965 l0 -145 315 0 315 0 0 145 0 145 -315 0 -315 0 0 -145z"/>
<path d="M4942 2548 l3 -143 313 -3 312 -2 0 145 0 145 -315 0 -316 0 3 -142z"/>
<path d="M5910 2545 l0 -145 315 0 315 0 0 145 0 145 -315 0 -315 0 0 -145z"/>
<path d="M180 3190 l0 -950 540 0 540 0 0 950 0 950 -540 0 -540 0 0 -950z
m540 665 l0 -125 -185 0 -185 0 0 125 0 125 185 0 185 0 0 -125z m-2 -442 l-3
-128 -182 -3 -183 -2 0 130 0 130 185 0 186 0 -3 -127z m-3 -443 l0 -125 -182
-3 -183 -2 0 130 0 130 183 -2 182 -3 0 -125z m3 -442 l3 -128 -186 0 -185 0
0 130 0 130 183 -2 182 -3 3 -127z"/>
<path d="M2260 4060 l0 -80 -35 0 -35 0 0 -130 0 -130 35 0 35 0 0 -95 0 -95
-35 0 -35 0 0 -125 0 -125 35 0 36 0 -3 -92 -3 -93 -32 -3 -33 -3 0 -125 0
-124 35 0 35 0 0 -90 0 -90 -35 0 -35 0 0 -130 0 -130 35 0 35 0 0 -80 0 -80
540 0 540 0 0 950 0 950 -540 0 -540 0 0 -80z m980 -870 l0 -860 -440 0 -440
0 0 35 0 35 403 2 402 3 0 125 0 125 -402 3 -403 2 0 90 0 90 403 2 402 3 3
123 3 122 -406 0 -405 0 0 95 0 95 405 0 405 0 0 125 0 125 -405 0 -405 0 0
95 0 95 405 0 405 0 0 125 0 125 -405 0 -405 0 0 40 0 40 440 0 440 0 0 -860z"/>
<path d="M3420 3190 l0 -950 490 0 490 0 0 950 0 950 -490 0 -490 0 0 -950z
m820 665 l0 -125 -165 0 -165 0 0 125 0 125 165 0 165 0 0 -125z m0 -445 l0
-130 -165 0 -165 0 0 130 0 130 165 0 165 0 0 -130z m0 -440 l0 -130 -165 0
-165 0 0 130 0 130 165 0 165 0 0 -130z m0 -440 l0 -130 -165 0 -165 0 0 130
0 130 165 0 165 0 0 -130z"/>
<path d="M180 1955 l0 -155 3320 0 3320 0 0 155 0 155 -3320 0 -3320 0 0 -155z
m1330 10 l0 -65 -510 0 -510 0 0 65 0 65 510 0 510 0 0 -65z m1660 0 l0 -65
-510 0 -510 0 0 65 0 65 510 0 510 0 0 -65z m1670 0 l0 -65 -510 0 -510 0 0
65 0 65 510 0 510 0 0 -65z m1670 0 l0 -65 -510 0 -510 0 0 65 0 65 510 0 510
0 0 -65z"/>
</g>
</svg>
