<svg width="18" height="18" viewBox="0 0 18 18" fill="none" xmlns="http://www.w3.org/2000/svg">
<g opacity="0.5" clip-path="url(#clip0)">
<path d="M12.4313 6.2061L11.0223 6.15442L10.7168 14.4964L12.1258 14.5479L12.4313 6.2061Z" fill="black"/>
<path d="M9.70483 6.18018H8.29492V14.5222H9.70483V6.18018Z" fill="black"/>
<path d="M7.28478 14.4961L6.9793 6.15405L5.57031 6.20577L5.87582 14.5478L7.28478 14.4961Z" fill="black"/>
<path d="M0.611328 2.70239V4.1123H2.08047L3.24597 17.3569C3.27793 17.7209 3.58273 18 3.94811 18H14.0288C14.3942 18 14.6992 17.7207 14.731 17.3566L15.8965 4.1123H17.3894V2.70239H0.611328ZM13.3831 16.5901H4.59365L3.49579 4.1123H14.4812L13.3831 16.5901Z" fill="black"/>
<path d="M11.3021 0H6.6964C6.04855 0 5.52148 0.527062 5.52148 1.17492V3.40731H6.93139V1.40991H11.0672V3.40731H12.4771V1.17492C12.4771 0.527062 11.95 0 11.3021 0Z" fill="black"/>
</g>
<defs>
<clipPath id="clip0">
<rect width="18" height="18" fill="white"/>
</clipPath>
</defs>
</svg>
