<svg width="26" height="22" viewBox="0 0 26 22" fill="none" xmlns="http://www.w3.org/2000/svg">
<path d="M19.8421 17.1579C18.7084 17.1579 17.7895 18.0768 17.7895 19.2105C17.7895 20.3442 18.7084 21.2631 19.8421 21.2631C20.9758 21.2631 21.8947 20.3442 21.8947 19.2105C21.8947 18.0768 20.9758 17.1579 19.8421 17.1579ZM20.5263 19.8947H19.1579V18.5263H20.5263V19.8947ZM5.35942 4.15787L4.69711 0.736816H0V2.10524H3.6489L6.1579 12.3684C6.80789 14.1638 7.68984 15.7894 9.57895 15.7894H19.8421C21.7312 15.7894 22.4927 14.2684 23.2632 12.3684L26 4.15787H5.35942ZM21.8947 12.3684C21.4391 13.5664 20.9758 14.421 19.8421 14.421H9.57895C8.44521 14.421 7.98337 13.5959 7.52632 12.3684L5.72 5.52629H24.3107L21.8947 12.3684ZM8.89474 17.1579C7.761 17.1579 6.84211 18.0768 6.84211 19.2105C6.84211 20.3442 7.761 21.2631 8.89474 21.2631C10.0285 21.2631 10.9474 20.3442 10.9474 19.2105C10.9474 18.0768 10.0285 17.1579 8.89474 17.1579ZM9.57895 19.8947H8.21053V18.5263H9.57895V19.8947Z" fill="white"/>
</svg>
