<svg width="92" height="30" viewBox="0 0 92 30" fill="none" xmlns="http://www.w3.org/2000/svg">
<path d="M37.9207 13.2785V6.35596H40.8761C43.0638 6.35596 44.6759 7.64211 44.6759 9.7983C44.6759 11.9545 43.1022 13.2406 40.9145 13.2406H37.9207V13.2785ZM42.8336 9.83613C42.8336 8.77695 42.1811 7.94473 40.9145 7.94473H39.763V11.7275H40.9145C42.1043 11.7275 42.8336 10.8575 42.8336 9.83613Z" fill="white"/>
<path d="M45.3669 9.8361C45.3669 7.71774 46.979 6.28027 49.1284 6.28027C51.2778 6.28027 52.8514 7.75556 52.8514 9.8361C52.8514 11.9166 51.2394 13.3919 49.1284 13.3919C46.9406 13.3919 45.3669 11.9166 45.3669 9.8361ZM51.0091 9.8361C51.0091 8.70126 50.2798 7.83122 49.1284 7.83122C47.9769 7.83122 47.2093 8.70126 47.2093 9.8361C47.2093 10.9709 47.9385 11.841 49.1284 11.841C50.2415 11.841 51.0091 10.9331 51.0091 9.8361Z" fill="white"/>
<path d="M57.841 13.2785L56.6512 10.971H55.73V13.2785H53.926V6.35596H57.4188C58.9541 6.35596 59.8369 7.37731 59.8369 8.66346C59.8369 9.87396 59.1076 10.517 58.4551 10.744L59.8752 13.2785H57.841ZM58.0329 8.66346C58.0329 8.20953 57.6491 7.94473 57.1501 7.94473H55.73V9.42002H57.1501C57.6107 9.42002 58.0329 9.15523 58.0329 8.66346Z" fill="white"/>
<path d="M60.5662 9.8361C60.5662 7.71774 62.1782 6.28027 64.3276 6.28027C66.477 6.28027 68.0507 7.75556 68.0507 9.8361C68.0507 11.9166 66.4386 13.3919 64.3276 13.3919C62.1782 13.3919 60.5662 11.9166 60.5662 9.8361ZM66.2467 9.8361C66.2467 8.70126 65.5174 7.83122 64.366 7.83122C63.2145 7.83122 62.4469 8.70126 62.4469 9.8361C62.4469 10.9709 63.1761 11.841 64.366 11.841C65.4791 11.841 66.2467 10.9331 66.2467 9.8361Z" fill="white"/>
<path d="M73.8462 13.2785V10.517H70.9292V13.2785H69.1252V6.35596H70.9292V8.96609H73.8462V6.39379H75.6502V13.2785H73.8462Z" fill="white"/>
<path d="M76.7249 9.8361C76.7249 7.71774 78.3369 6.28027 80.4863 6.28027C82.6357 6.28027 84.2094 7.75556 84.2094 9.8361C84.2094 11.9166 82.5973 13.3919 80.4863 13.3919C78.3369 13.3919 76.7249 11.9166 76.7249 9.8361ZM82.367 9.8361C82.367 8.70126 81.6378 7.83122 80.4479 7.83122C79.2965 7.83122 78.5288 8.70126 78.5288 9.8361C78.5288 10.9709 79.2581 11.841 80.4479 11.841C81.6378 11.841 82.367 10.9331 82.367 9.8361Z" fill="white"/>
<path d="M86.8962 13.2785L84.2478 6.35596H86.282L88.0092 11.3492L89.7364 6.35596H91.7707L89.1223 13.2406H86.8962V13.2785Z" fill="white"/>
<path d="M37.9207 23.6059V16.7212H40.8761C43.0638 16.7212 44.6759 18.0073 44.6759 20.1635C44.6759 22.3197 43.1022 23.6059 40.9145 23.6059H37.9207ZM42.8336 20.1635C42.8336 19.1044 42.1811 18.2721 40.9145 18.2721H39.763V22.0549H40.9145C42.1043 22.0549 42.8336 21.1849 42.8336 20.1635Z" fill="white"/>
<path d="M45.7507 23.6059V16.7212H50.8556V18.2721H47.5163V19.3313H50.7788V20.8823H47.5163V22.0549H50.8556V23.6059H45.7507Z" fill="white"/>
<path d="M51.6614 22.6597L52.6209 21.3357C53.1199 21.8274 53.8875 22.2436 54.8471 22.2436C55.4612 22.2436 55.845 22.0166 55.845 21.6761C55.845 20.7304 51.8917 21.487 51.8917 18.839C51.8917 17.6664 52.8896 16.645 54.6936 16.645C55.8066 16.645 56.8046 16.9855 57.5338 17.5907L56.5359 18.8769C55.9602 18.3851 55.1925 18.1581 54.5016 18.1581C53.9643 18.1581 53.734 18.3473 53.734 18.6499C53.734 19.5199 57.6874 18.8769 57.6874 21.4492C57.6874 22.8488 56.651 23.7567 54.7703 23.7567C53.3502 23.7567 52.3523 23.3027 51.6614 22.6597Z" fill="white"/>
<path d="M58.7236 23.6059V16.7212H60.5276V23.6059H58.7236Z" fill="white"/>
<path d="M61.6023 20.1632C61.6023 17.9692 63.2911 16.6074 65.4021 16.6074C66.9758 16.6074 67.897 17.4396 68.3959 18.2719L66.899 19.0284C66.6303 18.5745 66.093 18.1584 65.4021 18.1584C64.2507 18.1584 63.4446 19.0284 63.4446 20.1632C63.4446 21.2981 64.2507 22.1681 65.4021 22.1681C65.9011 22.1681 66.4384 21.979 66.7071 21.752V21.2224H65.1334V19.6715H68.5111V22.4329C67.7434 23.2651 66.7455 23.7947 65.4021 23.7947C63.3295 23.7569 61.6023 22.3573 61.6023 20.1632Z" fill="white"/>
<path d="M74.5372 23.6059L71.5818 19.6339V23.6437H69.7778V16.7212H71.6202L74.4604 20.504V16.7212H76.2644V23.6059H74.5372Z" fill="white"/>
<path d="M12.243 0.0766602H0.267822V29.8473H12.3198C22.4526 29.8473 28.9776 23.9839 28.9776 14.943C28.9392 5.90216 22.4143 0.0766602 12.243 0.0766602ZM11.936 23.8704H6.60086V6.46958H12.0127C18.269 6.46958 22.6446 8.89057 22.6446 14.9809C22.6446 19.8607 18.6528 23.8704 11.936 23.8704Z" fill="white"/>
<path d="M13.1642 11.4248H11.7825V18.4986H13.1642C15.8894 18.4986 17.5014 16.872 17.5014 14.8671C17.463 12.4083 15.6974 11.4248 13.1642 11.4248Z" fill="white"/>
</svg>
