<svg width="18" height="18" viewBox="0 0 18 18" fill="none" xmlns="http://www.w3.org/2000/svg">
<path d="M8.99989 18L6.23145 13.2045H2.77156C1.34778 13.2045 0.189941 12.155 0.189941 10.8636V2.34162C0.189941 1.05016 1.34843 0 2.77156 0H15.2282C16.6513 0 17.8092 1.05016 17.8092 2.34162V10.8636C17.8092 12.155 16.6513 13.2045 15.2282 13.2045H11.7683L8.99989 18ZM2.77156 1.2973C2.06389 1.2973 1.48724 1.76562 1.48724 2.34162V10.8636C1.48724 11.4396 2.06389 11.9072 2.77156 11.9072H6.9787L8.99794 15.4054L11.0165 11.9072H15.2263C15.9346 11.9072 16.5099 11.4389 16.5099 10.8636V2.34162C16.5099 1.76562 15.9326 1.2973 15.2263 1.2973H2.77156Z" fill="#939393"/>
</svg>
