<svg width="19" height="19" viewBox="0 0 19 19" fill="none" xmlns="http://www.w3.org/2000/svg">
<g clip-path="url(#clip0)">
<path d="M12.4381 6.20873C12.7641 5.88272 12.7641 5.3542 12.4381 5.02804C12.1121 4.70203 11.5834 4.70203 11.2574 5.02804L4.50084 11.7846C3.47684 12.8087 3.47684 14.475 4.50098 15.499C5.01298 16.011 5.68559 16.267 6.35805 16.267C7.03067 16.267 7.70328 16.011 8.21527 15.499L11.444 12.2705L11.4441 12.2704L16.8785 6.83583C18.4317 5.28259 18.4317 2.75522 16.8785 1.20198C15.3252 -0.351255 12.7979 -0.35111 11.2446 1.20198L3.7843 8.66231C3.77082 8.67565 3.75879 8.69 3.74647 8.70406L2.5233 9.92723C1.5183 10.9322 0.964844 12.2733 0.964844 13.703C0.964844 15.1327 1.5183 16.4736 2.5233 17.4786C3.5283 18.4836 4.86918 19.0371 6.29891 19.0371C7.72864 19.0371 9.06966 18.4836 10.0747 17.4786L16.2259 11.3274C16.5519 11.0014 16.5519 10.4727 16.2259 10.1467C15.8999 9.82054 15.3712 9.82054 15.0452 10.1467L8.89383 16.2979C8.20426 16.9876 7.28275 17.3673 6.29891 17.3673C5.31507 17.3673 4.39357 16.9876 3.70399 16.2979C3.01428 15.6083 2.63448 14.6867 2.63448 13.703C2.63448 12.7191 3.01428 11.7976 3.70399 11.1079L9.8552 4.95672C9.86868 4.94324 9.88086 4.92889 9.89318 4.91468L12.4252 2.38268C13.3274 1.48045 14.7956 1.48045 15.6976 2.38253C16.5999 3.28476 16.5999 4.75291 15.6976 5.65513L13.7914 7.56135C13.7913 7.56149 13.7911 7.56164 13.791 7.56178L7.03458 14.3183C6.6616 14.6913 6.05465 14.6913 5.68167 14.3183C5.30855 13.9454 5.30855 13.3384 5.68167 12.9653L12.4381 6.20873Z" fill="#939393"/>
</g>
<defs>
<clipPath id="clip0">
<rect width="19" height="19" fill="white" transform="matrix(1 0 0 -1 0 19)"/>
</clipPath>
</defs>
</svg>
