<svg width="18" height="18" viewBox="0 0 18 18" fill="none" xmlns="http://www.w3.org/2000/svg">
<g clip-path="url(#clip0)">
<path d="M17.537 13.2762L15.2994 11.0385C14.6824 10.4216 13.6786 10.4216 13.0617 11.0385L12.0446 12.0556C11.5772 12.523 10.8167 12.5228 10.3495 12.0558L5.94094 7.64343C5.47248 7.17497 5.47241 6.41676 5.94094 5.94823C6.10476 5.7844 6.57519 5.31397 6.95804 4.93112C7.57226 4.31694 7.58084 3.31622 6.95745 2.6929L4.72038 0.462868C4.10346 -0.154019 3.09964 -0.154019 2.48437 0.46125C2.02396 0.917649 1.87546 1.06488 1.66902 1.26953C-0.555671 3.49418 -0.555672 7.11398 1.66891 9.33856L8.65419 16.3275C10.8841 18.5574 14.4932 18.5576 16.7233 16.3275L17.537 15.5138C18.154 14.8969 18.154 13.8931 17.537 13.2762ZM3.22863 1.20874C3.43425 1.00311 3.7688 1.00308 3.9751 1.20931L6.21217 3.43934C6.41829 3.64546 6.41829 3.97906 6.21217 4.18521L5.83919 4.55815L2.85759 1.57655L3.22863 1.20874ZM9.40021 15.5817L2.4149 8.59272C0.693714 6.87154 0.599108 4.1689 2.12394 2.33469L5.0969 5.30765C4.31573 6.1932 4.34828 7.5426 5.19488 8.3892L9.60334 12.8013C9.60338 12.8014 9.60345 12.8014 9.60349 12.8015C10.4492 13.6472 11.7985 13.6819 12.6851 12.8996L15.6582 15.8727C13.8298 17.3949 11.1332 17.3147 9.40021 15.5817ZM16.7912 14.7679L16.4182 15.1409L13.4347 12.1573L13.8076 11.7844C14.0132 11.5788 14.3478 11.5787 14.5535 11.7844L16.7912 14.022C16.9968 14.2277 16.9968 14.5623 16.7912 14.7679Z" fill="#939393"/>
</g>
<defs>
<clipPath id="clip0">
<rect width="18" height="18" fill="white" transform="matrix(-1 0 0 1 18 0)"/>
</clipPath>
</defs>
</svg>
