<svg width="15" height="13" viewBox="0 0 15 13" fill="none" xmlns="http://www.w3.org/2000/svg">
<path d="M14.6066 1.00051C14.3443 0.738199 14.029 0.607117 13.6608 0.607117H1.33932C0.971021 0.607117 0.655674 0.738199 0.393392 1.00051C0.131082 1.26276 0 1.57808 0 1.94643V11.0536C0 11.4221 0.131082 11.7371 0.393392 11.9994C0.655644 12.2618 0.970991 12.3929 1.33932 12.3929H13.6608C14.029 12.3929 14.3443 12.2618 14.6066 11.9994C14.869 11.7371 15 11.4219 15 11.0536V1.94643C15 1.57808 14.869 1.26276 14.6066 1.00051ZM13.9285 11.0534C13.9285 11.126 13.902 11.1888 13.8489 11.2418C13.7958 11.2948 13.7331 11.3211 13.6607 11.3211H1.33923C1.2667 11.3211 1.2039 11.2948 1.15092 11.2418C1.09788 11.1888 1.07141 11.126 1.07141 11.0534V4.62492C1.24995 4.82581 1.44249 5.00998 1.64898 5.17736C3.14456 6.3269 4.33315 7.26992 5.21487 8.00657C5.49946 8.24657 5.73107 8.43347 5.90962 8.56743C6.08817 8.70144 6.32952 8.83672 6.63361 8.97337C6.93773 9.11023 7.22376 9.17833 7.49161 9.17833H7.50002H7.50835C7.77614 9.17833 8.06229 9.11023 8.36629 8.97337C8.6705 8.83672 8.91199 8.70147 9.09048 8.56743C9.269 8.43347 9.50064 8.24657 9.78526 8.00657C10.667 7.26992 11.8554 6.3269 13.3511 5.17736C13.5576 5.01001 13.7502 4.82581 13.9285 4.62492V11.0534ZM13.9285 2.164V2.25606C13.9285 2.58528 13.7988 2.95222 13.5394 3.35676C13.2799 3.76129 12.9994 4.08361 12.6982 4.3235C11.6211 5.17185 10.5024 6.05623 9.34141 6.97697C9.30799 7.00485 9.21024 7.08712 9.04835 7.22377C8.88669 7.36063 8.75827 7.46539 8.66337 7.53783C8.56835 7.61048 8.44433 7.69835 8.29094 7.80149C8.13743 7.90463 7.99656 7.9815 7.86823 8.03167C7.7399 8.08171 7.6199 8.10678 7.50835 8.10678H7.50002H7.49161C7.38002 8.10678 7.26014 8.08171 7.13173 8.03167C7.0034 7.9815 6.86244 7.90463 6.70904 7.80149C6.55568 7.69832 6.43149 7.61045 6.33661 7.53783C6.2418 7.46539 6.11339 7.36063 5.95161 7.22377C5.78977 7.08712 5.69202 7.00485 5.65857 6.97697C4.49789 6.0562 3.37908 5.17185 2.30201 4.3235C1.48166 3.67627 1.07155 2.8838 1.07155 1.94629C1.07155 1.87381 1.09803 1.81098 1.15106 1.75803C1.2041 1.705 1.26684 1.67846 1.33938 1.67846H13.6608C13.7054 1.70353 13.7445 1.71051 13.778 1.69943C13.8115 1.68814 13.8366 1.70913 13.8533 1.76211C13.87 1.81515 13.8854 1.84021 13.8993 1.83746C13.9133 1.83464 13.9217 1.8695 13.9245 1.94215C13.9271 2.01466 13.9285 2.05116 13.9285 2.05116V2.164H13.9285Z" fill="white"/>
</svg>
