<svg width="9" height="15" viewBox="0 0 9 15" fill="none" xmlns="http://www.w3.org/2000/svg">
<path d="M7.84364 0H1.15621C0.599066 0 0.143066 0.455571 0.143066 1.01314V13.9864C0.143066 14.544 0.599066 15 1.15621 15H7.84364C8.40078 15 8.85678 14.5449 8.85678 13.9869V1.01314C8.85678 0.455571 8.40078 0 7.84364 0ZM3.43021 0.730286H5.56964C5.63735 0.730286 5.69221 0.785143 5.69221 0.853286C5.69221 0.921 5.63735 0.975857 5.56964 0.975857H3.43021C3.36249 0.975857 3.30764 0.921 3.30764 0.853286C3.30764 0.785143 3.36249 0.730286 3.43021 0.730286ZM4.49992 14.4934C4.22007 14.4934 3.99335 14.2667 3.99335 13.9864C3.99335 13.7061 4.22007 13.4799 4.49992 13.4799C4.77978 13.4799 5.00649 13.7061 5.00649 13.9864C5.00649 14.2667 4.77978 14.4934 4.49992 14.4934ZM8.15178 13.125H0.848066V1.60671H8.15178V13.125Z" fill="white"/>
</svg>
