<svg width="26" height="26" viewBox="0 0 26 26" fill="none" xmlns="http://www.w3.org/2000/svg">
<path d="M19.8421 19.1579C18.7084 19.1579 17.7895 20.0768 17.7895 21.2105C17.7895 22.3442 18.7084 23.2631 19.8421 23.2631C20.9758 23.2631 21.8947 22.3442 21.8947 21.2105C21.8947 20.0768 20.9758 19.1579 19.8421 19.1579ZM20.5263 21.8947H19.1579V20.5263H20.5263V21.8947ZM5.35942 6.15787L4.69711 2.73682H0V4.10524H3.64889L6.15789 14.3684C6.80789 16.1638 7.68984 17.7894 9.57895 17.7894H19.8421C21.7312 17.7894 22.4927 16.2684 23.2632 14.3684L26 6.15787H5.35942ZM21.8947 14.3684C21.4391 15.5664 20.9758 16.421 19.8421 16.421H9.57895C8.44521 16.421 7.98337 15.5959 7.52632 14.3684L5.72 7.52629H24.3107L21.8947 14.3684ZM8.89474 19.1579C7.761 19.1579 6.84211 20.0768 6.84211 21.2105C6.84211 22.3442 7.761 23.2631 8.89474 23.2631C10.0285 23.2631 10.9474 22.3442 10.9474 21.2105C10.9474 20.0768 10.0285 19.1579 8.89474 19.1579ZM9.57895 21.8947H8.21053V20.5263H9.57895V21.8947Z" fill="#0C498C"/>
</svg>
